<svg width="163" height="180" viewBox="0 0 163 180" fill="none" xmlns="http://www.w3.org/2000/svg">
<path d="M81.0196 62.5L71.5196 75.5116L57.5196 79L61.0196 91L57.5196 104.5L71.5196 107.5L81.0196 119.5L90.5196 107.5L104.52 104.5L101.02 91L104.52 79L90.5196 75.5116L81.0196 62.5Z" fill="#B1E0F9"/>
<path d="M109.02 151.354L92.0196 123.5L80.9197 138.5L69.5196 123.5L52.5196 151.354L80.9197 180L109.02 151.354Z" fill="#3981A6"/>
<path d="M51.9694 30.2232L69.9694 59.7232L80.4694 44.2232L92.4694 59.7232L108.969 30.2232L80.4694 0.723204L51.9694 30.2232Z" fill="#56AEDF"/>
<path d="M121.52 36.9999L103.52 67.4999L118.02 70.9999L114.02 84.9999L144.02 84.9999L161.52 45.9999L121.52 36.9999Z" fill="#56AEDF"/>
<path d="M18.0199 85.1059L47.5199 85.1059L44.2428 71.2428L58.3791 67.7548L40.5199 37.0001L0.519852 46.5001L18.0199 85.1059Z" fill="#56AEDF"/>
<path d="M144.566 98.4221L114.02 98.4221L117.52 112.5L104.02 115.5L121.02 144.5L162.02 135.5L144.566 98.4221Z" fill="#3981A6"/>
<path d="M40.5198 145L58.0198 115.5L44.5198 112L48.0198 98.5924L17.0198 98.5924L0.519806 136L40.5198 145Z" fill="#3981A6"/>
</svg>
