<svg width="293" height="293" viewBox="0 0 293 293" fill="none" xmlns="http://www.w3.org/2000/svg">
<circle cx="146.5" cy="146.5" r="146.5" fill="#0D283B"/>
<path d="M146.02 118.5L136.52 131.512L122.52 135L126.02 147L122.52 160.5L136.52 163.5L146.02 175.5L155.52 163.5L169.52 160.5L166.02 147L169.52 135L155.52 131.512L146.02 118.5Z" fill="#B1E0F9"/>
<path d="M174.02 207.354L157.02 179.5L145.92 194.5L134.52 179.5L117.52 207.354L145.92 236L174.02 207.354Z" fill="#3981A6"/>
<path d="M116.969 86.2232L134.969 115.723L145.469 100.223L157.469 115.723L173.969 86.2232L145.469 56.7232L116.969 86.2232Z" fill="#56AEDF"/>
<path d="M186.52 92.9999L168.52 123.5L183.02 127L179.02 141L209.02 141L226.52 102L186.52 92.9999Z" fill="#56AEDF"/>
<path d="M83.0199 141.106L112.52 141.106L109.243 127.243L123.379 123.755L105.52 93.0001L65.5199 102.5L83.0199 141.106Z" fill="#56AEDF"/>
<path d="M209.566 154.422L179.02 154.422L182.52 168.5L169.02 171.5L186.02 200.5L227.02 191.5L209.566 154.422Z" fill="#3981A6"/>
<path d="M105.52 201L123.02 171.5L109.52 168L113.02 154.592L82.0198 154.592L65.5198 192L105.52 201Z" fill="#3981A6"/>
</svg>
